<?xml version="1.0" encoding="UTF-8" standalone="no"?>
<!-- Created with Inkscape (http://www.inkscape.org/) -->

<svg
   width="210mm"
   height="297mm"
   viewBox="0 0 210 297"
   version="1.1"
   id="svg1"
   xml:space="preserve"
   inkscape:version="1.4.2 (ebf0e94, 2025-05-08)"
   sodipodi:docname="sweater.svg"
   xmlns:inkscape="http://www.inkscape.org/namespaces/inkscape"
   xmlns:sodipodi="http://sodipodi.sourceforge.net/DTD/sodipodi-0.dtd"
   xmlns="http://www.w3.org/2000/svg"
   xmlns:svg="http://www.w3.org/2000/svg"><sodipodi:namedview
     id="namedview1"
     pagecolor="#505050"
     bordercolor="#eeeeee"
     borderopacity="1"
     inkscape:showpageshadow="0"
     inkscape:pageopacity="0"
     inkscape:pagecheckerboard="0"
     inkscape:deskcolor="#505050"
     inkscape:document-units="mm"
     inkscape:zoom="0.5532197"
     inkscape:cx="-82.245806"
     inkscape:cy="648.02465"
     inkscape:window-width="1600"
     inkscape:window-height="823"
     inkscape:window-x="0"
     inkscape:window-y="0"
     inkscape:window-maximized="1"
     inkscape:current-layer="layer1" /><defs
     id="defs1" /><g
     inkscape:label="Layer 1"
     inkscape:groupmode="layer"
     id="layer1"><path
       id="path1"
       style="display:none;opacity:1;fill:#ff9955;stroke:#ffccaa;stroke-width:0.270143"
       d="M 101.82993,17.316065 A 24.714009,24.714011 0 0 0 77.116183,42.029813 24.714009,24.714011 0 0 0 101.82993,66.744527 24.714009,24.714011 0 0 0 126.54466,42.029813 24.714009,24.714011 0 0 0 101.82993,17.316065 Z M 72.360961,72.767677 v 7.112107 l -0.05034,-5.584041 c 0,0 -17.162582,9.381845 -20.82393,30.892197 -3.661329,21.51033 -3.889827,26.54542 -3.889827,26.54542 0,0 -0.39116,35.2536 0.524175,38.45724 0.915351,3.20368 1.937495,6.34315 7.859787,6.81239 3.238169,0.25659 6.141466,-1.69841 7.634272,-3.39335 1.422166,-1.61467 1.37277,-5.0342 1.37277,-16.01821 0,-10.9864 -0.686108,-28.37561 1.602222,-39.13078 1.987357,-9.34051 5.010117,-16.60952 5.77096,-18.36028 v 64.47058 h 29.40765 v 0.18291 h 29.65987 v -64.47057 c 0.75408,1.75075 3.74991,9.01977 5.71953,18.36027 2.2679,10.7552 1.58738,28.14436 1.58738,39.13076 0,10.98402 -0.0486,14.40356 1.3609,16.01822 1.47951,1.69495 4.35678,3.64996 7.56606,3.39336 5.86945,-0.46926 6.88238,-3.60872 7.78955,-6.81238 0.90716,-3.20367 0.51923,-38.45725 0.51923,-38.45725 0,0 -0.22555,-5.03508 -3.85423,-26.54541 -3.62877,-21.510366 -20.63908,-30.892215 -20.63908,-30.892215 l -0.0493,5.584045 v -7.112073 h -29.14063 v -0.182922 z m 0.124584,91.860643 c -0.323619,101.94009 0.01973,101.92099 0.01973,101.92099 0,0 3.979224,10.18074 12.545768,9.99211 10.342947,-0.22776 13.550745,-6.5513 14.085701,-12.49335 0.474409,-5.26938 0.07516,-99.34458 0.07516,-99.34458 z m 58.819285,0.18291 -26.48806,0.0752 c 0,0 -0.39598,94.07521 0.0742,99.34459 0.53015,5.94204 3.7094,12.26558 13.96006,12.49334 8.49012,0.18869 12.43402,-9.99213 12.43402,-9.99213 0,0 0.34051,0.0192 0.0197,-101.92097 z" /><g
       style="fill:#000000"
       id="g8"
       transform="matrix(0.43515145,0,0,0.43515145,37.128817,51.405302)"><g
         id="g2">
	<path
   d="m 141.87,24.326 h -24.602 c -3.199,0 -5.793,2.594 -5.793,5.793 v 25.727 c -0.444,-0.109 -0.899,-0.186 -1.374,-0.186 h -12.02 c -8.75,0 -16.965,4.211 -22.074,11.315 L 2.36,169.383 c -3.822,5.314 -2.914,12.674 2.085,16.9 l 13.541,11.449 c 4.977,4.208 12.348,3.903 16.96,-0.703 L 74.63,157.396 69.093,260.917 c -0.328,3.514 0.839,7.004 3.215,9.613 2.377,2.609 5.743,4.096 9.272,4.096 h 60.495 z"
   id="path1-1" />
	<path
   d="m 294.508,186.283 c 4.999,-4.226 5.907,-11.586 2.085,-16.9 L 222.945,66.975 C 217.836,59.871 209.621,55.66 200.871,55.66 H 188.85 c -0.475,0 -0.93,0.076 -1.374,0.185 V 31.741 c 0,-4.095 -3.32,-7.415 -7.415,-7.415 H 156.87 l 0.205,250.3 h 60.296 c 3.529,0 6.896,-1.487 9.272,-4.096 2.377,-2.609 3.544,-6.099 3.215,-9.613 l -5.537,-103.521 39.684,39.633 c 4.612,4.606 11.983,4.912 16.96,0.703 z"
   id="path2" />
</g></g></g></svg>
