<?xml version="1.0" encoding="UTF-8" standalone="no"?>
<!-- Created with Inkscape (http://www.inkscape.org/) -->

<svg
   width="210mm"
   height="297mm"
   viewBox="0 0 210 297"
   version="1.1"
   id="svg1"
   xml:space="preserve"
   inkscape:version="1.4.2 (ebf0e94, 2025-05-08)"
   sodipodi:docname="pants.svg"
   xmlns:inkscape="http://www.inkscape.org/namespaces/inkscape"
   xmlns:sodipodi="http://sodipodi.sourceforge.net/DTD/sodipodi-0.dtd"
   xmlns="http://www.w3.org/2000/svg"
   xmlns:svg="http://www.w3.org/2000/svg"><sodipodi:namedview
     id="namedview1"
     pagecolor="#505050"
     bordercolor="#eeeeee"
     borderopacity="1"
     inkscape:showpageshadow="0"
     inkscape:pageopacity="0"
     inkscape:pagecheckerboard="0"
     inkscape:deskcolor="#505050"
     inkscape:document-units="mm"
     inkscape:zoom="0.5532197"
     inkscape:cx="-82.245806"
     inkscape:cy="648.02465"
     inkscape:window-width="1600"
     inkscape:window-height="823"
     inkscape:window-x="0"
     inkscape:window-y="0"
     inkscape:window-maximized="1"
     inkscape:current-layer="layer1" /><defs
     id="defs1" /><g
     inkscape:label="Layer 1"
     inkscape:groupmode="layer"
     id="layer1"><path
       id="path1"
       style="display:none;opacity:1;fill:#ff9955;stroke:#ffccaa;stroke-width:0.270143"
       d="M 101.82993,17.316065 A 24.714009,24.714011 0 0 0 77.116183,42.029813 24.714009,24.714011 0 0 0 101.82993,66.744527 24.714009,24.714011 0 0 0 126.54466,42.029813 24.714009,24.714011 0 0 0 101.82993,17.316065 Z M 72.360961,72.767677 v 7.112107 l -0.05034,-5.584041 c 0,0 -17.162582,9.381845 -20.82393,30.892197 -3.661329,21.51033 -3.889827,26.54542 -3.889827,26.54542 0,0 -0.39116,35.2536 0.524175,38.45724 0.915351,3.20368 1.937495,6.34315 7.859787,6.81239 3.238169,0.25659 6.141466,-1.69841 7.634272,-3.39335 1.422166,-1.61467 1.37277,-5.0342 1.37277,-16.01821 0,-10.9864 -0.686108,-28.37561 1.602222,-39.13078 1.987357,-9.34051 5.010117,-16.60952 5.77096,-18.36028 v 64.47058 h 29.40765 v 0.18291 h 29.65987 v -64.47057 c 0.75408,1.75075 3.74991,9.01977 5.71953,18.36027 2.2679,10.7552 1.58738,28.14436 1.58738,39.13076 0,10.98402 -0.0486,14.40356 1.3609,16.01822 1.47951,1.69495 4.35678,3.64996 7.56606,3.39336 5.86945,-0.46926 6.88238,-3.60872 7.78955,-6.81238 0.90716,-3.20367 0.51923,-38.45725 0.51923,-38.45725 0,0 -0.22555,-5.03508 -3.85423,-26.54541 -3.62877,-21.510366 -20.63908,-30.892215 -20.63908,-30.892215 l -0.0493,5.584045 v -7.112073 h -29.14063 v -0.182922 z m 0.124584,91.860643 c -0.323619,101.94009 0.01973,101.92099 0.01973,101.92099 0,0 3.979224,10.18074 12.545768,9.99211 10.342947,-0.22776 13.550745,-6.5513 14.085701,-12.49335 0.474409,-5.26938 0.07516,-99.34458 0.07516,-99.34458 z m 58.819285,0.18291 -26.48806,0.0752 c 0,0 -0.39598,94.07521 0.0742,99.34459 0.53015,5.94204 3.7094,12.26558 13.96006,12.49334 8.49012,0.18869 12.43402,-9.99213 12.43402,-9.99213 0,0 0.34051,0.0192 0.0197,-101.92097 z" /><g
       style="fill:#000000"
       id="g8"
       transform="matrix(0.49030092,0,0,0.49030092,26.246228,133.30467)"><g
         id="g2">
	<path
   d="m 219.891,19.792 c -0.635,-4.046 -1.408,-8.073 -2.356,-12.065 L 216.454,3.175 C 216.011,1.314 214.35,0 212.437,0 H 93.382 C 91.47,0 89.808,1.314 89.366,3.174 L 88.284,7.73 c -0.948,3.991 -1.721,8.016 -2.356,12.062 z"
   id="path1-2" />
	<path
   d="m 84.296,34.792 c -0.284,4.68 -0.378,9.374 -0.246,14.069 l 6.435,229.004 c 0.063,2.234 1.892,4.012 4.126,4.012 h 4.022 v 19.636 c 0,2.377 1.927,4.305 4.304,4.305 h 21.891 c 2.377,0 4.304,-1.927 4.304,-4.305 v -19.636 h 2.986 c 2.161,0 3.957,-1.667 4.117,-3.823 L 150.387,87.289 c 0.097,-1.315 1.193,-2.332 2.512,-2.332 1.319,0 2.414,1.017 2.512,2.332 l 14.152,190.765 c 0.16,2.155 1.955,3.823 4.117,3.823 h 3.953 v 19.636 c 0,2.377 1.927,4.305 4.304,4.305 h 21.891 c 2.377,0 4.304,-1.927 4.304,-4.305 v -19.636 h 3.054 c 2.234,0 4.063,-1.778 4.126,-4.012 l 6.454,-229.001 c 0.132,-4.697 0.039,-9.392 -0.245,-14.073 H 84.296 Z"
   id="path2" />
</g></g></g></svg>
