<?xml version="1.0" encoding="UTF-8" standalone="no"?>
<!-- Created with Inkscape (http://www.inkscape.org/) -->

<svg
   width="210mm"
   height="297mm"
   viewBox="0 0 210 297"
   version="1.1"
   id="svg1"
   xml:space="preserve"
   inkscape:version="1.4.2 (ebf0e94, 2025-05-08)"
   sodipodi:docname="t-shirt.svg"
   xmlns:inkscape="http://www.inkscape.org/namespaces/inkscape"
   xmlns:sodipodi="http://sodipodi.sourceforge.net/DTD/sodipodi-0.dtd"
   xmlns="http://www.w3.org/2000/svg"
   xmlns:svg="http://www.w3.org/2000/svg"><sodipodi:namedview
     id="namedview1"
     pagecolor="#505050"
     bordercolor="#eeeeee"
     borderopacity="1"
     inkscape:showpageshadow="0"
     inkscape:pageopacity="0"
     inkscape:pagecheckerboard="0"
     inkscape:deskcolor="#505050"
     inkscape:document-units="mm"
     inkscape:zoom="0.5532197"
     inkscape:cx="-82.245806"
     inkscape:cy="648.02465"
     inkscape:window-width="1600"
     inkscape:window-height="823"
     inkscape:window-x="0"
     inkscape:window-y="0"
     inkscape:window-maximized="1"
     inkscape:current-layer="layer1" /><defs
     id="defs1" /><g
     inkscape:label="Layer 1"
     inkscape:groupmode="layer"
     id="layer1"><path
       id="path1"
       style="display:none;opacity:1;fill:#ff9955;stroke:#ffccaa;stroke-width:0.270143"
       d="M 101.82993,17.316065 A 24.714009,24.714011 0 0 0 77.116183,42.029813 24.714009,24.714011 0 0 0 101.82993,66.744527 24.714009,24.714011 0 0 0 126.54466,42.029813 24.714009,24.714011 0 0 0 101.82993,17.316065 Z M 72.360961,72.767677 v 7.112107 l -0.05034,-5.584041 c 0,0 -17.162582,9.381845 -20.82393,30.892197 -3.661329,21.51033 -3.889827,26.54542 -3.889827,26.54542 0,0 -0.39116,35.2536 0.524175,38.45724 0.915351,3.20368 1.937495,6.34315 7.859787,6.81239 3.238169,0.25659 6.141466,-1.69841 7.634272,-3.39335 1.422166,-1.61467 1.37277,-5.0342 1.37277,-16.01821 0,-10.9864 -0.686108,-28.37561 1.602222,-39.13078 1.987357,-9.34051 5.010117,-16.60952 5.77096,-18.36028 v 64.47058 h 29.40765 v 0.18291 h 29.65987 v -64.47057 c 0.75408,1.75075 3.74991,9.01977 5.71953,18.36027 2.2679,10.7552 1.58738,28.14436 1.58738,39.13076 0,10.98402 -0.0486,14.40356 1.3609,16.01822 1.47951,1.69495 4.35678,3.64996 7.56606,3.39336 5.86945,-0.46926 6.88238,-3.60872 7.78955,-6.81238 0.90716,-3.20367 0.51923,-38.45725 0.51923,-38.45725 0,0 -0.22555,-5.03508 -3.85423,-26.54541 -3.62877,-21.510366 -20.63908,-30.892215 -20.63908,-30.892215 l -0.0493,5.584045 v -7.112073 h -29.14063 v -0.182922 z m 0.124584,91.860643 c -0.323619,101.94009 0.01973,101.92099 0.01973,101.92099 0,0 3.979224,10.18074 12.545768,9.99211 10.342947,-0.22776 13.550745,-6.5513 14.085701,-12.49335 0.474409,-5.26938 0.07516,-99.34458 0.07516,-99.34458 z m 58.819285,0.18291 -26.48806,0.0752 c 0,0 -0.39598,94.07521 0.0742,99.34459 0.53015,5.94204 3.7094,12.26558 13.96006,12.49334 8.49012,0.18869 12.43402,-9.99213 12.43402,-9.99213 0,0 0.34051,0.0192 0.0197,-101.92097 z" /><g
       style="fill:#000000"
       id="g8"
       transform="matrix(0.35049306,0,0,0.35049306,49.427368,63.703753)"><g
         id="g2">
	<path
   d="m 147.763,44.074 c 12.801,0 23.858,-8.162 27.83,-20.169 -7.578,2.086 -17.237,3.345 -27.83,3.345 -10.592,0 -20.251,-1.259 -27.828,-3.345 3.97,12.006 15.026,20.169 27.828,20.169 z"
   id="path1-7" />
	<path
   d="m 295.158,58.839 c -0.608,-1.706 -1.873,-3.109 -3.521,-3.873 l -56.343,-26.01 c -11.985,-4.06 -24.195,-7.267 -36.524,-9.611 -0.434,-0.085 -0.866,-0.126 -1.292,-0.126 -3.052,0 -5.785,2.107 -6.465,5.197 -4.502,19.82 -22.047,34.659 -43.251,34.659 -21.203,0 -38.749,-14.838 -43.25,-34.659 -0.688,-3.09 -3.416,-5.197 -6.466,-5.197 -0.426,0 -0.858,0.041 -1.292,0.126 -12.328,2.344 -24.538,5.551 -36.542,9.611 L 3.889,54.965 c -1.658,0.764 -2.932,2.167 -3.511,3.873 -0.599,1.726 -0.491,3.589 0.353,5.217 l 24.46,48.272 c 1.145,2.291 3.474,3.666 5.938,3.666 0.636,0 1.281,-0.092 1.917,-0.283 l 27.167,-8.052 v 161.97 c 0,3.678 3.001,6.678 6.689,6.678 h 161.723 c 3.678,0 6.67,-3.001 6.67,-6.678 V 107.66 l 27.186,8.052 c 0.636,0.191 1.28,0.283 1.915,0.283 2.459,0 4.779,-1.375 5.94,-3.666 l 24.469,-48.272 c 0.824,-1.629 0.942,-3.492 0.353,-5.218 z"
   id="path2" />
</g></g></g></svg>
